<svg version="1.1" id="Layer_1" xmlns="http://www.w3.org/2000/svg" xmlns:xlink="http://www.w3.org/1999/xlink" x="0px" y="0px"
	 width="100%" viewBox="0 0 196 196" enable-background="new 0 0 196 196" xml:space="preserve">
<path fill="#000000" opacity="1.000000" stroke="none" 
	d="
M197.000000,53.000000 
	C197.000000,101.333336 197.000000,149.166672 197.000000,197.000000 
	C131.666672,197.000000 66.333336,197.000000 1.000000,197.000000 
	C1.000000,131.666672 1.000000,66.333336 1.000000,1.000000 
	C66.333336,1.000000 131.666672,1.000000 197.000000,1.000000 
	C197.000000,18.166666 197.000000,35.333332 197.000000,53.000000 
M39.193367,183.963074 
	C38.872177,184.190094 38.550987,184.417130 38.229801,184.644165 
	C38.821144,184.811340 39.412487,184.978516 40.103294,185.845459 
	C45.194256,190.426987 50.752728,187.868118 56.920284,186.915421 
	C60.878784,188.874146 65.328560,188.723694 69.592453,190.487366 
	C77.152985,193.614609 85.947083,194.394272 94.295212,194.839020 
	C108.007591,195.569550 121.508125,194.225296 134.256805,188.052002 
	C146.807510,181.974594 159.234695,175.695236 168.879990,165.442459 
	C176.509338,157.332611 182.891663,148.352829 187.201569,137.737869 
	C194.517944,119.718193 197.225342,101.126793 193.741348,82.281845 
	C189.869827,61.340755 180.841141,42.912224 164.189316,28.243448 
	C153.453934,18.786549 140.794525,13.372343 128.463791,7.354854 
	C121.770218,4.088333 113.364128,3.265745 105.727440,3.253536 
	C95.005508,3.236394 84.265106,4.864789 73.569725,6.108549 
	C71.307526,6.371620 69.205505,8.012053 66.670738,8.318933 
	C63.858021,7.741327 60.006001,8.102230 58.455307,6.384997 
	C55.495361,3.107160 52.222816,3.928989 49.045555,4.109112 
	C43.672024,4.413745 38.322586,5.255879 32.990604,6.055892 
	C32.219017,6.171661 31.600468,7.307404 30.970049,8.005311 
	C30.970049,8.005311 30.982204,7.938528 30.458050,8.072273 
	C30.270863,8.368145 30.083677,8.664017 29.347027,9.239917 
	C29.274429,9.829997 29.201832,10.420077 29.027628,11.902612 
	C29.068043,14.600400 29.108456,17.298189 29.054071,20.887558 
	C28.995569,24.923658 28.937069,28.959757 28.231787,33.220726 
	C27.281132,34.517498 26.445368,35.920158 25.362484,37.095058 
	C10.530667,53.187183 4.698081,72.890038 3.099251,94.048370 
	C2.084807,107.473152 4.583210,120.570534 9.010607,133.306046 
	C15.583210,152.212296 28.007524,166.447083 44.016708,178.615433 
	C44.120678,178.864182 44.224651,179.112930 43.995377,179.773773 
	C43.987114,180.226120 43.978848,180.678482 43.815865,181.601852 
	C43.370251,182.090042 42.924633,182.578232 42.055248,182.548141 
	C41.321564,183.017151 40.587879,183.486160 39.193367,183.963074 
z"/>
<path fill="#FCFDFE" opacity="1.000000" stroke="none" 
	d="
M67.029678,9.017865 
	C69.205505,8.012053 71.307526,6.371620 73.569725,6.108549 
	C84.265106,4.864789 95.005508,3.236394 105.727440,3.253536 
	C113.364128,3.265745 121.770218,4.088333 128.463791,7.354854 
	C140.794525,13.372343 153.453934,18.786549 164.189316,28.243448 
	C180.841141,42.912224 189.869827,61.340755 193.741348,82.281845 
	C197.225342,101.126793 194.517944,119.718193 187.201569,137.737869 
	C182.891663,148.352829 176.509338,157.332611 168.879990,165.442459 
	C159.234695,175.695236 146.807510,181.974594 134.256805,188.052002 
	C121.508125,194.225296 108.007591,195.569550 94.295212,194.839020 
	C85.947083,194.394272 77.152985,193.614609 69.592453,190.487366 
	C65.328560,188.723694 60.878784,188.874146 56.436569,186.563202 
	C53.838524,183.771194 51.724186,181.331390 48.874062,178.042542 
	C48.046711,178.563629 46.008652,179.847229 43.970585,181.130829 
	C43.978848,180.678482 43.987114,180.226120 44.391052,179.424377 
	C44.560108,178.653854 44.333485,178.232758 44.106857,177.811646 
	C28.007524,166.447083 15.583210,152.212296 9.010607,133.306046 
	C4.583210,120.570534 2.084807,107.473152 3.099251,94.048370 
	C4.698081,72.890038 10.530667,53.187183 25.362484,37.095058 
	C26.445368,35.920158 27.281132,34.517498 28.759762,33.468346 
	C29.943031,35.420120 31.133957,37.114216 31.166178,38.830074 
	C31.366362,49.490833 31.306681,60.156464 31.164993,71.235832 
	C31.105667,72.824013 31.214558,73.996841 31.276859,75.624878 
	C31.333445,84.975739 31.436621,93.871391 31.373493,103.201416 
	C31.251865,105.474091 31.296541,107.312401 31.271288,109.582153 
	C31.344580,112.602615 31.487801,115.191643 31.508907,118.196228 
	C31.365633,119.462631 31.344473,120.313469 31.264896,121.618492 
	C31.199417,124.227768 31.298498,126.389381 31.166637,128.536819 
	C30.638685,137.134949 30.401892,145.593246 40.324478,150.670670 
	C41.889221,149.468628 43.987553,147.856705 46.416889,145.990494 
	C43.609039,142.934158 41.386097,140.493256 39.139317,138.074493 
	C36.568779,135.307190 34.266869,132.519684 37.794479,129.556107 
	C36.702961,127.032883 35.831009,125.017204 35.141541,122.568657 
	C36.883209,123.098236 38.442387,124.060692 39.999352,124.993530 
	C39.997139,124.963905 39.937126,124.968437 40.023090,125.207130 
	C40.392120,125.627060 40.675186,125.808304 41.056095,126.256859 
	C41.723122,127.011063 42.292301,127.497955 42.943840,128.334106 
	C45.990913,132.045959 49.476254,133.738617 54.433235,132.135193 
	C56.575245,132.052185 58.282856,131.938171 59.846054,131.833801 
	C59.507778,128.444717 59.227852,125.640205 59.382507,122.817848 
	C61.645107,122.554466 63.473129,122.308929 65.617630,122.088387 
	C66.618752,121.733360 67.881798,121.375107 67.897049,120.969902 
	C68.025238,117.563004 67.627075,114.303780 63.843674,112.538086 
	C64.276527,111.304695 64.620262,110.439812 65.066467,109.317139 
	C62.792477,108.977768 60.644451,108.060089 58.808475,108.486374 
	C50.783009,110.349785 46.015759,108.354149 43.002155,100.851570 
	C41.863400,98.016571 42.028988,94.649750 40.848961,91.840881 
	C38.454979,86.142387 35.548996,80.658974 32.923569,74.702126 
	C33.063663,73.278885 33.134254,72.240417 33.481110,70.989624 
	C36.258400,67.885315 38.494209,68.949196 40.765968,71.507217 
	C41.472057,71.860176 42.467930,72.191597 42.587513,71.993637 
	C44.841003,68.263428 48.150574,67.555649 52.302193,68.692863 
	C52.718704,69.248360 52.923592,69.591309 53.089680,70.223129 
	C53.331089,70.749229 53.611294,70.986435 54.110165,71.494080 
	C57.712238,75.085190 57.441402,80.405106 53.529705,82.684296 
	C50.556767,84.416504 51.698994,85.769569 53.651730,86.968956 
	C57.083652,89.076859 62.021717,87.740524 66.054916,83.510078 
	C59.353813,83.893738 58.699650,79.806946 59.123024,74.896492 
	C59.205559,73.939163 59.057178,72.961929 59.059662,71.645111 
	C58.441338,70.139450 57.778664,68.982536 57.179810,67.617676 
	C57.243633,67.409721 57.136982,66.987938 57.215168,66.614288 
	C56.159519,62.365330 53.099598,61.276417 49.593609,61.305672 
	C45.073467,61.343384 40.556152,61.719936 36.016182,61.968582 
	C35.994747,61.986607 36.049992,61.978397 36.107800,61.535217 
	C35.382526,57.077320 34.599449,53.062595 33.813248,48.625866 
	C33.848152,46.803200 33.886177,45.402538 34.140678,43.800426 
	C34.402149,43.022778 34.447144,42.446579 34.681511,41.628403 
	C35.290863,40.684391 35.710838,39.982365 36.543903,39.188301 
	C39.005177,39.405567 41.053360,39.714870 43.128269,40.433929 
	C43.098061,42.207314 43.041122,43.570946 42.759262,45.137291 
	C42.632317,46.126446 42.730286,46.912884 42.933559,48.544636 
	C44.313629,46.863140 45.099701,45.905380 45.925217,44.955620 
	C45.964657,44.963619 45.949806,44.884506 46.227589,44.807434 
	C46.975826,44.145111 47.446281,43.559864 47.951164,42.982651 
	C47.985592,42.990688 47.976616,42.920559 48.255264,42.853558 
	C48.948784,42.178848 49.363651,41.571144 49.939583,40.849785 
	C50.100643,40.736137 50.131927,40.343136 50.444206,40.134956 
	C51.640846,39.225529 52.525200,38.524284 53.787113,37.523663 
	C53.951443,40.023033 54.059105,41.660492 54.195744,43.738636 
	C56.393009,41.349773 58.090206,39.504585 60.130856,37.285999 
	C59.527321,36.323471 58.777248,35.127247 58.021503,33.705322 
	C58.015827,33.479614 58.073521,33.031761 58.487732,33.007366 
	C64.902412,31.643694 66.263275,37.776867 69.947800,40.138432 
	C71.972351,41.436047 73.272820,44.659279 73.853500,47.248901 
	C75.082237,52.728531 75.624504,58.362087 76.475677,64.117462 
	C78.613220,62.908054 80.390053,62.087120 81.935516,60.951351 
	C82.720642,60.374355 83.669838,59.136448 83.544266,58.358925 
	C83.026566,55.153667 82.004005,52.032310 81.425446,48.833374 
	C81.194756,47.557835 81.633812,46.161171 81.802391,44.475536 
	C80.831406,43.752552 79.526672,42.781063 78.345352,41.901466 
	C79.515045,39.888813 80.296387,38.544376 80.931313,37.451881 
	C77.619568,34.645088 74.629501,32.110928 71.639442,29.576769 
	C72.168114,29.403666 72.696777,29.230562 73.225449,29.057457 
	C72.756844,26.313522 73.249092,22.325127 71.628181,21.073605 
	C67.739914,18.071436 66.713844,14.268414 66.241394,9.982752 
	C66.687119,9.641423 66.858398,9.329644 67.029678,9.017865 
M68.347626,133.053085 
	C68.304016,133.376221 68.260399,133.699371 67.889389,134.428223 
	C67.827164,134.765366 67.764938,135.102493 67.149399,135.846756 
	C66.748009,136.893570 66.346626,137.940369 65.519440,139.427933 
	C65.219261,140.400711 64.919090,141.373474 64.115913,142.770493 
	C64.005127,143.186111 63.894348,143.601715 63.629280,144.152252 
	C63.629280,144.152252 63.626038,144.357162 63.122654,144.773468 
	C63.030869,145.187790 62.939083,145.602127 62.643024,146.190079 
	C62.643024,146.190079 62.687233,146.454514 62.202343,146.833313 
	C62.137146,147.222885 62.071953,147.612457 61.616592,148.524094 
	C61.319225,149.334229 61.021862,150.144379 60.225063,151.239777 
	C60.096489,151.785004 59.967915,152.330246 59.992538,152.977646 
	C59.992538,152.977646 59.860798,152.848877 59.390343,153.058762 
	C59.334015,153.379562 59.277691,153.700363 58.852222,154.557526 
	C58.564182,155.365692 58.276142,156.173874 57.421497,157.403641 
	C56.741444,159.167801 56.061390,160.931946 55.011757,163.171661 
	C54.692333,164.117981 54.372910,165.064285 53.566086,166.452728 
	C53.050362,167.634384 52.534637,168.816025 51.549747,170.608505 
	C51.430294,171.798065 51.310841,172.987625 51.191383,174.177185 
	C51.582401,174.246231 51.973419,174.315262 52.364433,174.384293 
	C52.962631,173.341812 53.560825,172.299332 54.799427,171.230103 
	C55.197956,171.101578 55.596485,170.973038 56.909637,171.064484 
	C62.951660,171.020126 68.993683,170.975769 75.472122,171.475327 
	C77.008308,174.509460 78.963707,177.422531 79.890770,180.632584 
	C80.308075,182.077515 78.672852,184.115250 77.159760,185.760666 
	C76.118805,185.998825 75.077850,186.236984 74.036896,186.475159 
	C74.097755,186.895676 74.158607,187.316208 74.219467,187.736725 
	C75.547630,187.736725 76.875786,187.736725 78.875351,187.812454 
	C79.548958,187.779663 80.222565,187.746872 81.817879,187.971298 
	C86.908157,187.885712 91.998428,187.800110 97.757278,187.803223 
	C98.430603,187.786423 99.103935,187.769623 100.484245,187.980911 
	C100.937233,187.637421 101.390228,187.293930 101.843224,186.950439 
	C101.240280,186.560928 100.637337,186.171417 99.524155,185.367081 
	C97.016808,181.573166 94.509468,177.779251 92.026062,173.251572 
	C92.019463,172.522079 92.012863,171.792572 92.934288,171.165359 
	C97.519669,171.165359 102.105057,171.165359 106.690437,171.165359 
	C106.856728,170.711105 107.023026,170.256836 107.189316,169.802582 
	C101.002220,169.729919 101.124092,165.812561 101.198586,161.624908 
	C101.240021,159.295425 100.508522,156.952209 100.668709,154.724274 
	C100.639313,154.160400 100.609917,153.596527 101.137154,152.418320 
	C101.143417,151.593216 101.149681,150.768127 101.274895,149.821442 
	C101.274895,149.821442 101.251869,149.652924 102.134499,149.465912 
	C107.043411,149.437622 111.952324,149.409332 116.932747,149.925751 
	C117.063423,150.267883 117.194099,150.610016 117.130714,151.504150 
	C117.200600,151.686234 117.270485,151.868332 117.207039,152.960190 
	C117.251183,156.953430 117.295334,160.946686 117.128296,165.493851 
	C117.190529,165.681396 117.252769,165.868958 117.088127,166.631104 
	C116.683434,167.344254 116.278740,168.057404 115.099518,168.889557 
	C113.789742,169.201355 112.479958,169.513153 111.170181,169.824966 
	C111.218483,170.164322 111.266777,170.503693 111.315079,170.843063 
	C118.828590,170.843063 126.342094,170.843063 133.828064,170.843063 
	C132.109314,169.996353 130.722763,169.313309 129.057968,167.970444 
	C128.733597,166.319458 128.409225,164.668472 128.339600,162.275055 
	C128.247162,161.506744 128.154709,160.738419 128.271255,159.106873 
	C128.198975,156.746353 128.126678,154.385818 128.327332,151.286179 
	C128.236389,150.515381 128.145447,149.744598 128.262833,148.250244 
	C128.194824,147.507355 128.126831,146.764465 128.324036,145.357178 
	C128.236023,144.897049 128.147995,144.436935 128.269135,143.099884 
	C128.200943,140.404449 128.132751,137.709015 128.279770,134.503876 
	C128.208618,134.333725 128.137451,134.163589 128.270218,133.346344 
	C128.215332,132.901382 128.160446,132.456406 128.361633,131.559738 
	C128.309372,131.394730 128.257095,131.229721 128.509659,130.533585 
	C128.962097,129.654602 129.414536,128.775635 130.600845,127.904106 
	C131.968964,127.442406 133.337067,126.980705 134.705185,126.519005 
	C134.575882,126.049393 134.446579,125.579773 134.317276,125.110161 
	C132.879868,125.330505 131.442474,125.550858 129.087830,125.749496 
	C125.724670,125.848442 122.361511,125.947380 118.196693,125.786430 
	C116.795341,125.812584 115.393982,125.838737 113.598930,125.349022 
	C112.866005,125.623367 112.133072,125.897713 111.400139,126.172058 
	C112.309959,126.404503 113.219788,126.636948 114.820343,127.185226 
	C118.869514,130.422638 116.307465,135.137512 117.238281,139.742874 
	C117.313797,140.487457 117.389305,141.232025 117.232025,142.683304 
	C117.306557,143.167831 117.381088,143.652359 117.182373,144.671967 
	C117.105583,145.064453 117.028801,145.456940 116.025032,145.881683 
	C111.099640,145.818695 106.174248,145.755707 101.173599,145.846558 
	C101.173599,145.846558 101.344673,145.854645 101.333893,144.940689 
	C101.208626,140.290115 101.083351,135.639557 101.162598,130.370392 
	C101.165619,129.937592 101.168640,129.504776 101.688194,128.789276 
	C102.467506,128.204361 103.246819,127.619446 104.799568,127.194077 
	C105.404587,126.705399 106.009598,126.216713 106.614616,125.728027 
	C105.597122,125.709938 104.579636,125.691849 102.961861,125.641220 
	C101.972580,125.774620 100.983299,125.908020 99.118187,125.813805 
	C96.415382,125.895737 93.712578,125.977661 90.240326,125.777924 
	C89.150108,125.763191 88.059891,125.748451 86.566055,125.257660 
	C85.808777,125.689735 85.051498,126.121811 84.294220,126.553871 
	C85.208237,126.666466 86.122261,126.779053 87.752785,127.169220 
	C88.454720,129.052704 89.727501,130.925156 89.764084,132.821472 
	C89.970383,143.514587 89.879707,154.213409 89.188438,164.884109 
	C88.045227,162.794815 86.097946,160.760513 85.950409,158.603119 
	C85.737999,155.497131 84.965134,153.268127 82.044662,151.201691 
	C81.495804,150.087540 80.946945,148.973404 80.349564,147.133835 
	C79.669151,145.893341 78.988731,144.652847 78.367363,143.176804 
	C78.367363,143.176804 78.198715,143.002090 78.216125,142.334641 
	C77.939392,141.999115 77.662659,141.663605 77.406250,141.136841 
	C77.406250,141.136841 77.287445,140.985611 77.266899,140.315094 
	C76.991776,139.974380 76.716652,139.633667 76.452499,139.117706 
	C76.452499,139.117706 76.360802,138.967972 76.342667,138.227524 
	C75.681862,136.942673 75.021057,135.657806 74.372261,134.144669 
	C74.372261,134.144669 74.198494,133.996124 74.182953,133.336151 
	C73.917267,132.999634 73.651581,132.663101 73.388863,131.848434 
	C73.312027,131.526550 73.147385,131.258652 72.931694,130.335541 
	C72.376640,129.613480 71.821587,128.891418 71.266541,128.169357 
	C70.716110,129.069244 70.165688,129.969131 69.470161,131.056259 
	C69.470161,131.056259 69.486252,131.292587 69.007088,131.688919 
	C68.925247,132.083435 68.843407,132.477936 68.900414,132.889389 
	C68.900414,132.889389 68.789909,132.803650 68.347626,133.053085 
M64.341766,68.534042 
	C67.478111,68.254219 70.614464,67.974396 73.684189,67.700516 
	C73.104744,65.016808 72.752441,63.385101 72.349419,61.518509 
	C68.706581,62.795574 63.169735,61.309280 64.341766,68.534042 
M56.064106,92.563850 
	C53.672112,92.719620 51.280117,92.875381 48.888123,93.031151 
	C53.313816,96.958946 63.889523,96.153687 68.003540,92.958382 
	C64.235809,92.723358 60.519638,92.491547 56.064106,92.563850 
M56.433292,98.365845 
	C53.732567,96.830582 51.220821,95.849487 50.219204,101.519966 
	C54.718361,101.285965 58.787487,101.074326 62.856617,100.862686 
	C62.846123,100.308182 62.835625,99.753677 62.825130,99.199173 
	C60.946568,99.024742 59.068008,98.850319 56.433292,98.365845 
z"/>
<path fill="#05488E" opacity="1.000000" stroke="none" 
	d="
M36.130810,39.280338 
	C35.710838,39.982365 35.290863,40.684391 34.430401,41.690216 
	C33.968006,42.663303 33.946102,43.332592 33.924202,44.001881 
	C33.886177,45.402538 33.848152,46.803200 33.570370,48.885231 
	C34.237072,53.703869 35.143532,57.841133 36.049995,61.978397 
	C36.049992,61.978397 35.994747,61.986607 36.026466,62.336227 
	C38.544846,64.498108 41.031513,66.310371 43.577961,68.166206 
	C43.057911,68.711624 41.852863,69.975433 40.647820,71.239243 
	C38.494209,68.949196 36.258400,67.885315 33.166985,70.932816 
	C32.162128,70.999054 31.747669,70.909767 31.333208,70.820480 
	C31.306681,60.156464 31.366362,49.490833 31.166178,38.830074 
	C31.133957,37.114216 29.943031,35.420120 29.083151,33.355911 
	C28.937069,28.959757 28.995569,24.923658 29.485155,20.443264 
	C30.949430,20.001747 31.982624,20.004524 32.856049,20.343723 
	C32.696281,23.514715 32.696281,26.349283 32.696281,30.148911 
	C34.394054,28.900770 35.691956,27.946604 37.253372,27.200058 
	C37.681026,28.275364 37.845169,29.143047 38.005867,30.340118 
	C37.994972,31.108770 37.987522,31.548037 37.799160,32.134644 
	C37.801094,32.651733 37.983940,33.021477 38.166786,33.391220 
	C38.447811,32.930511 38.728836,32.469807 39.259903,32.007744 
	C39.676640,32.004719 39.843334,32.003048 40.277157,32.193684 
	C41.692253,34.261051 42.840221,36.136108 43.722870,38.018082 
	C43.280849,38.035973 43.104153,38.046940 42.569252,37.967491 
	C39.921478,37.206039 37.458244,35.782509 36.130810,39.280338 
z"/>
<path fill="#024992" opacity="1.000000" stroke="none" 
	d="
M33.015816,20.007301 
	C31.982624,20.004524 30.949430,20.001747 29.532555,19.997473 
	C29.108456,17.298189 29.068043,14.600400 29.482639,11.454515 
	C32.961182,10.935217 36.066154,11.271156 38.987049,10.686860 
	C42.421345,9.999864 45.695904,8.514361 49.243423,7.248640 
	C49.447113,7.122144 49.892242,6.943761 50.269936,6.969258 
	C52.115150,7.823710 53.582672,8.652665 55.835812,9.925389 
	C53.709518,11.013567 52.870838,11.512897 51.979446,11.886464 
	C48.654411,13.279922 45.312092,14.632129 41.592300,15.993084 
	C39.697315,15.713184 38.186283,15.440016 36.724594,15.175768 
	C36.056293,17.032917 35.519352,18.525028 34.654541,20.015568 
	C33.889721,20.011766 33.452766,20.009535 33.015816,20.007301 
z"/>
<path fill="#0F477F" opacity="1.000000" stroke="none" 
	d="
M43.893227,181.366348 
	C46.008652,179.847229 48.046711,178.563629 48.874062,178.042542 
	C51.724186,181.331390 53.838524,183.771194 56.079956,186.555420 
	C50.752728,187.868118 45.194256,190.426987 40.258011,185.341522 
	C40.638767,184.583527 40.864811,184.329453 41.407593,184.018524 
	C41.975891,183.663254 42.227448,183.364838 42.479012,183.066437 
	C42.924633,182.578232 43.370251,182.090042 43.893227,181.366348 
z"/>
<path fill="#7C9AB0" opacity="1.000000" stroke="none" 
	d="
M49.892242,6.943761 
	C49.892242,6.943761 49.447113,7.122144 48.839806,7.176458 
	C42.458694,7.477564 36.684898,7.724358 30.911098,7.971150 
	C31.600468,7.307404 32.219017,6.171661 32.990604,6.055892 
	C38.322586,5.255879 43.672024,4.413745 49.045555,4.109112 
	C52.222816,3.928989 55.495361,3.107160 58.455307,6.384997 
	C60.006001,8.102230 63.858021,7.741327 66.850204,8.668398 
	C66.858398,9.329644 66.687119,9.641423 65.864029,9.968442 
	C61.379120,8.903369 57.108444,9.330371 53.804798,6.271882 
	C53.214172,5.725085 51.231934,6.681451 49.892242,6.943761 
z"/>
<path fill="#1A548F" opacity="1.000000" stroke="none" 
	d="
M30.940575,7.988231 
	C36.684898,7.724358 42.458694,7.477564 48.636116,7.302954 
	C45.695904,8.514361 42.421345,9.999864 38.987049,10.686860 
	C36.066154,11.271156 32.961182,10.935217 29.533442,11.008289 
	C29.201832,10.420077 29.274429,9.829997 29.915384,9.059755 
	C30.649897,8.565905 30.816050,8.252216 30.982204,7.938528 
	C30.982204,7.938528 30.970049,8.005311 30.940575,7.988231 
z"/>
<path fill="#BBD7EC" opacity="1.000000" stroke="none" 
	d="
M41.090851,184.075378 
	C40.864811,184.329453 40.638767,184.583527 40.208282,184.991638 
	C39.412487,184.978516 38.821144,184.811340 38.229797,184.644165 
	C38.550987,184.417130 38.872177,184.190094 39.833946,183.978912 
	C40.679966,184.021622 40.885410,184.048508 41.090851,184.075378 
z"/>
<path fill="#E7ECEF" opacity="1.000000" stroke="none" 
	d="
M41.407593,184.018524 
	C40.885410,184.048508 40.679966,184.021622 40.164360,183.974960 
	C40.587879,183.486160 41.321564,183.017151 42.267128,182.807281 
	C42.227448,183.364838 41.975891,183.663254 41.407593,184.018524 
z"/>
<path fill="#72BCD0" opacity="1.000000" stroke="none" 
	d="
M44.061783,178.213531 
	C44.333485,178.232758 44.560108,178.653854 44.557678,179.218323 
	C44.224651,179.112930 44.120678,178.864182 44.061783,178.213531 
z"/>
<path fill="#7C9AB0" opacity="1.000000" stroke="none" 
	d="
M30.720127,8.005401 
	C30.816050,8.252216 30.649897,8.565905 30.190117,8.919741 
	C30.083677,8.664017 30.270863,8.368145 30.720127,8.005401 
z"/>
<path fill="#1A548F" opacity="1.000000" stroke="none" 
	d="
M50.269936,6.969258 
	C51.231934,6.681451 53.214172,5.725085 53.804798,6.271882 
	C57.108444,9.330371 61.379120,8.903369 65.589592,9.997992 
	C66.713844,14.268414 67.739914,18.071436 71.628181,21.073605 
	C73.249092,22.325127 72.756844,26.313522 73.225449,29.057457 
	C72.696777,29.230562 72.168114,29.403666 71.639442,29.576769 
	C74.629501,32.110928 77.619568,34.645088 80.931313,37.451881 
	C80.296387,38.544376 79.515045,39.888813 78.345352,41.901466 
	C79.526672,42.781063 80.831406,43.752552 81.802391,44.475536 
	C81.633812,46.161171 81.194756,47.557835 81.425446,48.833374 
	C82.004005,52.032310 83.026566,55.153667 83.544266,58.358925 
	C83.669838,59.136448 82.720642,60.374355 81.935516,60.951351 
	C80.390053,62.087120 78.613220,62.908054 76.475677,64.117462 
	C75.624504,58.362087 75.082237,52.728531 73.853500,47.248901 
	C73.272820,44.659279 71.972351,41.436047 69.947800,40.138432 
	C66.263275,37.776867 64.902412,31.643694 58.184025,32.797249 
	C56.225075,32.054447 55.017334,31.400742 53.736431,30.959358 
	C50.567490,29.867384 49.920139,28.256018 52.768105,26.030415 
	C54.375324,28.455687 56.414642,30.035595 58.492680,27.887442 
	C59.788616,26.547785 59.757408,23.924301 60.483410,21.290644 
	C57.051773,22.043037 55.011589,22.490355 53.028854,22.601561 
	C54.504337,21.076658 55.922363,19.887867 57.654144,18.436045 
	C52.524040,17.370525 48.082306,17.372126 43.745655,19.988466 
	C42.995480,19.565765 42.497360,19.282841 41.990379,18.750523 
	C41.981525,18.501125 41.959957,18.002487 41.968201,17.668734 
	C41.976387,16.889925 41.976322,16.444868 41.976257,15.999813 
	C45.312092,14.632129 48.654411,13.279922 51.979446,11.886464 
	C52.870838,11.512897 53.709518,11.013567 55.835812,9.925389 
	C53.582672,8.652665 52.115150,7.823710 50.269936,6.969258 
z"/>
<path fill="#0D4E91" opacity="1.000000" stroke="none" 
	d="
M63.626038,144.357162 
	C63.626038,144.357162 63.629280,144.152252 64.003593,143.904419 
	C64.458244,143.219803 64.538574,142.783020 64.618912,142.346252 
	C64.919090,141.373474 65.219261,140.400711 66.064270,139.056000 
	C66.973640,137.602585 67.338173,136.521103 67.702713,135.439636 
	C67.764938,135.102493 67.827164,134.765366 68.262909,134.088867 
	C68.687592,133.434219 68.738747,133.118927 68.789909,132.803650 
	C68.789909,132.803650 68.900414,132.889389 69.130043,132.726288 
	C69.401863,132.139648 69.444061,131.716125 69.486252,131.292587 
	C69.486252,131.292587 69.470161,131.056259 69.953590,130.988617 
	C71.256325,130.962219 72.075638,131.003479 72.894943,131.044724 
	C73.147385,131.258652 73.312027,131.526550 73.347336,132.432587 
	C73.603363,133.343201 73.900932,133.669662 74.198494,133.996124 
	C74.198494,133.996124 74.372261,134.144669 74.272820,134.647278 
	C74.902519,136.422577 75.631660,137.695267 76.360794,138.967972 
	C76.360802,138.967972 76.452499,139.117706 76.400375,139.559982 
	C76.661308,140.330048 76.974380,140.657822 77.287445,140.985611 
	C77.287445,140.985611 77.406250,141.136841 77.358246,141.577454 
	C77.606400,142.346054 77.902557,142.674072 78.198715,143.002090 
	C78.198715,143.002090 78.367363,143.176804 78.263916,143.683868 
	C78.906342,145.413712 79.652214,146.636475 80.398087,147.859253 
	C80.946945,148.973404 81.495804,150.087540 82.019455,151.881134 
	C79.964432,153.262589 77.934624,153.964569 75.890678,154.671448 
	C79.589912,162.699005 83.384842,170.934250 87.310059,179.452240 
	C89.367630,177.054886 90.684875,175.520111 92.002129,173.985336 
	C94.509468,177.779251 97.016808,181.573166 99.758957,185.905853 
	C99.921585,186.880707 99.849419,187.316757 99.777252,187.752823 
	C99.103935,187.769623 98.430603,187.786423 97.079147,187.520691 
	C91.232727,187.396805 86.064453,187.555435 80.896172,187.714081 
	C80.222565,187.746872 79.548958,187.779663 78.502487,187.464890 
	C78.076050,186.706223 78.022491,186.295105 77.968933,185.884003 
	C78.672852,184.115250 80.308075,182.077515 79.890770,180.632584 
	C78.963707,177.422531 77.008308,174.509460 75.361588,170.929489 
	C75.148735,169.576065 75.046417,168.768478 74.954865,167.704941 
	C74.546486,166.853485 74.127350,166.257965 73.501709,165.407562 
	C73.050163,164.316650 72.805122,163.480621 72.667267,162.251358 
	C71.989838,160.648804 71.205208,159.439484 70.222664,157.954575 
	C68.151840,154.837204 66.278931,151.995422 64.124481,149.053223 
	C63.564957,148.674332 63.286976,148.395859 62.959129,147.695770 
	C62.835255,147.000916 62.761242,146.727722 62.687233,146.454514 
	C62.687233,146.454514 62.643024,146.190079 63.026134,145.915085 
	C63.481510,145.212448 63.553772,144.784805 63.626038,144.357162 
z"/>
<path fill="#125190" opacity="1.000000" stroke="none" 
	d="
M32.854069,75.086906 
	C35.548996,80.658974 38.454979,86.142387 40.848961,91.840881 
	C42.028988,94.649750 41.863400,98.016571 43.002155,100.851570 
	C46.015759,108.354149 50.783009,110.349785 58.808475,108.486374 
	C60.644451,108.060089 62.792477,108.977768 65.066467,109.317139 
	C64.620262,110.439812 64.276527,111.304695 63.536743,112.509399 
	C62.760689,112.982285 62.380665,113.115341 61.765182,113.193756 
	C61.219379,113.248344 60.900940,113.282883 60.199608,113.197227 
	C59.223946,113.787529 58.623081,114.423340 57.873329,115.355400 
	C57.391724,116.449158 57.059013,117.246681 56.537704,118.133934 
	C56.125568,118.416588 56.003990,118.660355 55.570038,118.962769 
	C53.782383,118.890930 52.409069,118.811295 50.966095,118.423279 
	C50.196198,117.773544 49.495960,117.432190 48.495537,116.946030 
	C45.456142,114.555824 42.716930,112.310440 39.950294,109.713882 
	C38.348587,108.228264 36.774303,107.093819 35.073036,105.661118 
	C33.810638,104.497597 32.675220,103.632324 31.539799,102.767052 
	C31.436621,93.871391 31.333445,84.975739 31.532259,75.663818 
	C32.174187,75.194008 32.514130,75.140457 32.854069,75.086906 
z"/>
<path fill="#0B4E91" opacity="1.000000" stroke="none" 
	d="
M128.105545,132.011444 
	C128.160446,132.456406 128.215332,132.901382 127.980995,133.749146 
	C127.816032,134.439163 127.940300,134.726379 128.064575,135.013580 
	C128.132751,137.709015 128.200943,140.404449 127.923599,143.680145 
	C127.738319,144.847473 127.898567,145.434525 128.058823,146.021576 
	C128.126831,146.764465 128.194824,147.507355 127.896042,148.792816 
	C127.704300,150.232025 127.879349,151.128662 128.054398,152.025299 
	C128.126678,154.385818 128.198975,156.746353 127.902451,159.720398 
	C127.717377,161.228455 127.901115,162.122971 128.084854,163.017487 
	C128.409225,164.668472 128.733597,166.319458 128.924789,168.663574 
	C124.485756,169.161316 120.179901,168.965927 115.874046,168.770538 
	C116.278740,168.057404 116.683434,167.344254 117.365677,166.246948 
	C117.688805,165.744492 117.805077,165.589661 117.766441,165.514816 
	C117.658409,165.305496 117.486305,165.129227 117.339485,164.939926 
	C117.295334,160.946686 117.251183,156.953430 117.432144,152.404892 
	C117.546425,151.550446 117.435608,151.251297 117.324783,150.952148 
	C117.194099,150.610016 117.063423,150.267883 116.934441,149.212830 
	C116.941429,147.616425 116.946724,146.732925 116.952019,145.849426 
	C117.028801,145.456940 117.105583,145.064453 117.541573,144.502960 
	C118.245605,144.028625 118.590439,143.723282 118.935265,143.417938 
	C118.445114,142.937500 117.954964,142.457047 117.464813,141.976608 
	C117.389305,141.232025 117.313797,140.487457 117.700790,139.233398 
	C118.441643,134.498062 118.720001,130.272186 118.998352,126.046318 
	C122.361511,125.947380 125.724670,125.848442 129.565552,126.116547 
	C129.984497,126.954613 129.925735,127.425629 129.866974,127.896652 
	C129.414536,128.775635 128.962097,129.654602 128.155334,130.845123 
	C127.716263,131.263733 127.542313,131.444016 127.560722,131.466461 
	C127.722893,131.664078 127.919281,131.833603 128.105545,132.011444 
z"/>
<path fill="#024992" opacity="1.000000" stroke="none" 
	d="
M41.959957,18.002487 
	C41.959957,18.002487 41.981525,18.501125 41.986256,19.102100 
	C41.796474,20.944368 41.601963,22.185659 41.407448,23.426952 
	C41.733086,23.546032 42.058723,23.665112 42.384357,23.784191 
	C42.922142,22.565542 43.459923,21.346891 43.997707,20.128242 
	C48.082306,17.372126 52.524040,17.370525 57.654144,18.436045 
	C55.922363,19.887867 54.504337,21.076658 52.818108,22.840570 
	C52.536366,24.219736 52.522827,25.023781 52.509293,25.827827 
	C49.920139,28.256018 50.567490,29.867384 53.736431,30.959358 
	C55.017334,31.400742 56.225075,32.054447 57.769814,32.821644 
	C58.073521,33.031761 58.015827,33.479614 57.999786,34.071770 
	C57.191193,35.224365 56.294312,36.367439 55.623611,36.247345 
	C52.183441,35.631348 50.377235,36.847881 50.131927,40.343136 
	C50.131927,40.343136 50.100643,40.736137 49.640865,40.895889 
	C48.779598,41.677277 48.378105,42.298920 47.976616,42.920559 
	C47.976616,42.920559 47.985592,42.990688 47.641090,43.012108 
	C46.847664,43.650524 46.398735,44.267517 45.949806,44.884506 
	C45.949806,44.884506 45.964657,44.963619 45.562244,44.954842 
	C44.434616,44.942234 43.709396,44.938404 42.984180,44.934578 
	C43.041122,43.570946 43.098061,42.207314 43.235641,40.496162 
	C43.316280,40.148647 43.533184,40.026833 43.670818,40.022747 
	C43.808453,40.018661 44.081955,39.986534 44.372036,39.947075 
	C44.437801,39.275383 44.213486,38.643154 43.993538,38.006130 
	C43.997906,38.001339 43.988194,38.011162 43.988194,38.011162 
	C42.840221,36.136108 41.692253,34.261051 40.233269,31.873688 
	C39.284603,30.911165 38.646957,30.460947 38.009308,30.010731 
	C37.845169,29.143047 37.681026,28.275364 37.259445,26.782484 
	C37.002369,24.764267 37.002728,23.371248 37.009056,21.595734 
	C37.123276,17.771120 39.608852,17.990356 41.959957,18.002487 
z"/>
<path fill="#034A92" opacity="1.000000" stroke="none" 
	d="
M91.009773,126.059586 
	C93.712578,125.977661 96.415382,125.895737 99.556953,126.277626 
	C100.387703,127.518288 100.779686,128.295135 101.171677,129.071976 
	C101.168640,129.504776 101.165619,129.937592 100.771652,130.979614 
	C100.702034,136.344101 101.023354,141.099380 101.344673,145.854645 
	C101.344673,145.854645 101.173599,145.846558 101.139900,146.261719 
	C101.154755,147.668884 101.203308,148.660904 101.251869,149.652924 
	C101.251869,149.652924 101.274895,149.821442 100.932625,150.060120 
	C100.376907,151.135483 100.163460,151.972168 99.919151,152.844803 
	C99.888290,152.880768 99.810844,152.935410 99.395370,152.952835 
	C96.807121,152.970261 94.634338,152.970261 91.445938,152.970261 
	C93.218796,155.065155 94.052734,156.050568 94.914780,157.365173 
	C94.940910,158.135147 94.938927,158.575943 94.675751,159.210922 
	C93.287590,160.595734 92.160637,161.786377 91.028435,162.510651 
	C91.018715,150.049393 91.014244,138.054489 91.009773,126.059586 
z"/>
<path fill="#195591" opacity="1.000000" stroke="none" 
	d="
M34.959053,123.001526 
	C35.831009,125.017204 36.702961,127.032883 37.794479,129.556107 
	C34.266869,132.519684 36.568779,135.307190 39.139317,138.074493 
	C41.386097,140.493256 43.609039,142.934158 46.416889,145.990494 
	C43.987553,147.856705 41.889221,149.468628 40.324478,150.670670 
	C30.401892,145.593246 30.638685,137.134949 31.166637,128.536819 
	C31.298498,126.389381 31.199417,124.227768 31.511658,121.655922 
	C32.149521,121.217201 32.478767,121.170822 32.943325,121.326370 
	C33.352402,121.767006 33.622734,121.981331 33.964905,122.488098 
	C34.349415,122.862114 34.662083,122.943687 34.986069,123.004532 
	C34.997387,122.983795 34.959053,123.001526 34.959053,123.001526 
z"/>
<path fill="#6C88BC" opacity="1.000000" stroke="none" 
	d="
M92.014099,173.618454 
	C90.684875,175.520111 89.367630,177.054886 87.310059,179.452240 
	C83.384842,170.934250 79.589912,162.699005 75.890678,154.671448 
	C77.934624,153.964569 79.964432,153.262589 82.114441,152.180664 
	C84.965134,153.268127 85.737999,155.497131 85.950409,158.603119 
	C86.097946,160.760513 88.045227,162.794815 89.636436,165.251221 
	C90.717422,166.427063 91.350410,167.235809 91.977249,168.422028 
	C91.982826,169.554047 91.994545,170.308563 92.006264,171.063080 
	C92.012863,171.792572 92.019463,172.522079 92.014099,173.618454 
z"/>
<path fill="#1E5490" opacity="1.000000" stroke="none" 
	d="
M92.470276,171.114227 
	C91.994545,170.308563 91.982826,169.554047 91.982788,168.044098 
	C91.674210,165.851440 91.353951,164.414230 91.033684,162.977005 
	C92.160637,161.786377 93.287590,160.595734 94.935242,159.078766 
	C95.615974,158.187531 95.776009,157.622665 95.936050,157.057770 
	C95.586258,157.050507 95.236465,157.043243 94.886673,157.035980 
	C94.052734,156.050568 93.218796,155.065155 91.445938,152.970261 
	C94.634338,152.970261 96.807121,152.970261 99.401131,153.177704 
	C99.923363,153.795151 100.024368,154.205154 100.125381,154.615173 
	C100.508522,156.952209 101.240021,159.295425 101.198586,161.624908 
	C101.124092,165.812561 101.002220,169.729919 107.189316,169.802582 
	C107.023026,170.256836 106.856728,170.711105 106.690437,171.165359 
	C102.105057,171.165359 97.519669,171.165359 92.470276,171.114227 
z"/>
<path fill="#225A93" opacity="1.000000" stroke="none" 
	d="
M35.200012,105.959373 
	C36.774303,107.093819 38.348587,108.228264 39.561470,109.687607 
	C39.233879,111.321236 38.990646,112.713745 39.356064,113.922211 
	C40.267658,116.936958 41.455925,119.868057 42.518417,122.861328 
	C42.503693,122.889931 42.468643,122.835976 42.234131,122.607590 
	C41.429478,122.591232 40.859333,122.803246 40.255524,123.360748 
	C40.148430,124.145210 40.074997,124.584183 40.001564,125.023148 
	C38.442387,124.060692 36.883209,123.098236 35.141541,122.568657 
	C34.959053,123.001526 34.997387,122.983795 35.429871,122.785416 
	C35.687962,122.004723 35.513569,121.422417 35.134384,120.552589 
	C34.287556,119.988297 33.645512,119.711517 33.028938,119.193878 
	C32.579948,118.562233 32.105484,118.171455 31.631020,117.780670 
	C31.487801,115.191643 31.344580,112.602615 31.603716,109.528290 
	C33.070721,108.015114 34.135368,106.987244 35.200012,105.959373 
z"/>
<path fill="#E5ECEE" opacity="1.000000" stroke="none" 
	d="
M42.468643,122.835976 
	C42.468643,122.835976 42.503693,122.889931 42.979641,122.912750 
	C46.106571,123.075218 48.757553,123.214867 51.358059,123.351852 
	C50.869110,121.863976 50.438148,120.552544 50.273933,119.133148 
	C50.705704,118.927338 50.870728,118.829498 51.035755,118.731659 
	C52.409069,118.811295 53.782383,118.890930 55.646454,119.268997 
	C56.769653,120.379829 57.402100,121.192230 57.765457,122.206131 
	C56.843910,123.566902 56.095524,124.684006 55.562733,125.895889 
	C54.860180,127.493889 54.326855,129.166290 53.350117,130.814682 
	C49.606800,129.876724 46.234142,128.930786 42.861481,127.984840 
	C42.292301,127.497955 41.723122,127.011063 40.953011,126.009567 
	C40.480427,125.319458 40.208778,125.143951 39.937126,124.968437 
	C39.937126,124.968437 39.997139,124.963905 39.999352,124.993530 
	C40.074997,124.584183 40.148430,124.145210 40.619125,123.350677 
	C41.500469,122.942070 41.984558,122.889023 42.468643,122.835976 
z"/>
<path fill="#426F9B" opacity="1.000000" stroke="none" 
	d="
M40.765972,71.507217 
	C41.852863,69.975433 43.057911,68.711624 43.577961,68.166206 
	C41.031513,66.310371 38.544846,64.498108 36.047901,62.318207 
	C40.556152,61.719936 45.073467,61.343384 49.593609,61.305672 
	C53.099598,61.276417 56.159519,62.365330 56.898708,66.455673 
	C53.814594,64.535995 51.350655,61.624748 46.685783,63.941536 
	C48.767700,65.689865 50.429134,67.085083 52.090572,68.480309 
	C48.150574,67.555649 44.841003,68.263428 42.587513,71.993637 
	C42.467930,72.191597 41.472057,71.860176 40.765972,71.507217 
z"/>
<path fill="#1E5386" opacity="1.000000" stroke="none" 
	d="
M59.015312,71.993874 
	C59.057178,72.961929 59.205559,73.939163 59.123024,74.896492 
	C58.699650,79.806946 59.353813,83.893738 66.054916,83.510078 
	C62.021717,87.740524 57.083652,89.076859 53.651730,86.968956 
	C51.698994,85.769569 50.556767,84.416504 53.529705,82.684296 
	C57.441402,80.405106 57.712238,75.085190 54.148674,71.189178 
	C53.970867,70.409752 53.973217,70.205650 54.344055,70.004822 
	C55.449524,70.007477 56.186504,70.006866 57.182297,70.149033 
	C57.965847,70.859169 58.490578,71.426521 59.015312,71.993874 
z"/>
<path fill="#3D6B97" opacity="1.000000" stroke="none" 
	d="
M64.020584,68.327911 
	C63.169735,61.309280 68.706581,62.795574 72.349419,61.518509 
	C72.752441,63.385101 73.104744,65.016808 73.684189,67.700516 
	C70.614464,67.974396 67.478111,68.254219 64.020584,68.327911 
z"/>
<path fill="#42698E" opacity="1.000000" stroke="none" 
	d="
M56.433784,92.411797 
	C60.519638,92.491547 64.235809,92.723358 68.003540,92.958382 
	C63.889523,96.153687 53.313816,96.958946 48.888123,93.031151 
	C51.280117,92.875381 53.672112,92.719620 56.433784,92.411797 
z"/>
<path fill="#09427F" opacity="1.000000" stroke="none" 
	d="
M74.944107,167.960892 
	C75.046417,168.768478 75.148735,169.576065 75.143372,170.657532 
	C68.993683,170.975769 62.951660,171.020126 56.461761,170.651398 
	C56.249611,169.501495 56.485332,168.764679 57.064079,168.059113 
	C57.630363,168.045013 57.853619,167.999664 58.536072,167.903595 
	C63.673695,167.899551 68.352112,167.946228 73.193863,168.014603 
	C73.357193,168.036285 73.687340,168.028412 74.002136,168.022873 
	C74.525993,167.998505 74.735054,167.979691 74.944107,167.960892 
z"/>
<path fill="#1D528A" opacity="1.000000" stroke="none" 
	d="
M91.028435,162.510651 
	C91.353951,164.414230 91.674210,165.851440 91.988937,167.666595 
	C91.350410,167.235809 90.717422,166.427063 89.987350,165.264313 
	C89.879707,154.213409 89.970383,143.514587 89.764084,132.821472 
	C89.727501,130.925156 88.454720,129.052704 87.404755,126.739388 
	C87.027710,126.117599 86.998688,125.925652 86.969673,125.733711 
	C88.059891,125.748451 89.150108,125.763191 90.625046,125.918762 
	C91.014244,138.054489 91.018715,150.049393 91.028435,162.510651 
z"/>
<path fill="#4C7095" opacity="1.000000" stroke="none" 
	d="
M115.486786,168.830048 
	C120.179901,168.965927 124.485756,169.161316 129.063904,168.993469 
	C130.722763,169.313309 132.109314,169.996353 133.828064,170.843063 
	C126.342094,170.843063 118.828590,170.843063 111.315079,170.843063 
	C111.266777,170.503693 111.218483,170.164322 111.170181,169.824966 
	C112.479958,169.513153 113.789742,169.201355 115.486786,168.830048 
z"/>
<path fill="#265381" opacity="1.000000" stroke="none" 
	d="
M101.693184,149.559418 
	C101.203308,148.660904 101.154755,147.668884 101.177528,146.184784 
	C106.174248,145.755707 111.099640,145.818695 116.488525,145.865555 
	C116.946724,146.732925 116.941429,147.616425 116.898682,148.940475 
	C111.952324,149.409332 107.043411,149.437622 101.693184,149.559418 
z"/>
<path fill="#305B87" opacity="1.000000" stroke="none" 
	d="
M56.811371,98.520866 
	C59.068008,98.850319 60.946568,99.024742 62.825130,99.199173 
	C62.835625,99.753677 62.846123,100.308182 62.856617,100.862686 
	C58.787487,101.074326 54.718361,101.285965 50.219204,101.519966 
	C51.220821,95.849487 53.732567,96.830582 56.811371,98.520866 
z"/>
<path fill="#476E8F" opacity="1.000000" stroke="none" 
	d="
M53.720779,130.806702 
	C54.326855,129.166290 54.860180,127.493889 55.562733,125.895889 
	C56.095524,124.684006 56.843910,123.566902 57.968296,122.283073 
	C58.709095,122.309540 58.878326,122.535263 58.947926,122.835686 
	C59.227852,125.640205 59.507778,128.444717 59.846054,131.833801 
	C58.282856,131.938171 56.575245,132.052185 54.372768,131.808868 
	C53.825527,131.236572 53.773151,131.021637 53.720779,130.806702 
z"/>
<path fill="#034892" opacity="1.000000" stroke="none" 
	d="
M56.923481,70.006256 
	C56.186504,70.006866 55.449524,70.007477 54.133369,69.976944 
	C53.554195,69.945808 53.128479,69.934250 53.128479,69.934250 
	C52.923592,69.591309 52.718704,69.248360 52.302193,68.692863 
	C50.429134,67.085083 48.767700,65.689865 46.685783,63.941536 
	C51.350655,61.624748 53.814594,64.535995 56.820522,66.829315 
	C57.136982,66.987938 57.243633,67.409721 57.067871,67.970177 
	C56.902569,69.022507 56.913025,69.514381 56.923481,70.006256 
z"/>
<path fill="#1A548F" opacity="1.000000" stroke="none" 
	d="
M50.444206,40.134956 
	C50.377235,36.847881 52.183441,35.631348 55.623611,36.247345 
	C56.294312,36.367439 57.191193,35.224365 58.005463,34.297478 
	C58.777248,35.127247 59.527321,36.323471 60.130856,37.285999 
	C58.090206,39.504585 56.393009,41.349773 54.195744,43.738636 
	C54.059105,41.660492 53.951443,40.023033 53.787113,37.523663 
	C52.525200,38.524284 51.640846,39.225529 50.444206,40.134956 
z"/>
<path fill="#31618D" opacity="1.000000" stroke="none" 
	d="
M59.382507,122.817848 
	C58.878326,122.535263 58.709095,122.309540 58.237389,122.081573 
	C57.402100,121.192230 56.769653,120.379829 56.060791,119.261200 
	C56.003990,118.660355 56.125568,118.416588 56.934959,118.095200 
	C58.037086,117.870430 58.553356,117.774132 59.386509,117.757668 
	C60.135418,117.891808 60.567444,117.946121 61.119873,118.312302 
	C62.093227,118.843369 62.946182,119.062569 63.818634,119.283577 
	C63.838135,119.285385 63.798546,119.305145 63.928326,119.595810 
	C64.472450,120.612122 64.886803,121.337753 65.301147,122.063393 
	C63.473129,122.308929 61.645107,122.554466 59.382507,122.817848 
z"/>
<path fill="#164E85" opacity="1.000000" stroke="none" 
	d="
M118.597519,125.916374 
	C118.720001,130.272186 118.441643,134.498062 117.814346,138.872482 
	C116.307465,135.137512 118.869514,130.422638 114.467934,126.772461 
	C114.074562,126.194756 114.033592,126.029823 113.992630,125.864883 
	C115.393982,125.838737 116.795341,125.812584 118.597519,125.916374 
z"/>
<path fill="#D7E4EA" opacity="1.000000" stroke="none" 
	d="
M65.617630,122.088387 
	C64.886803,121.337753 64.472450,120.612122 64.230560,119.479111 
	C66.488754,115.939804 62.568130,115.285751 62.000645,113.248390 
	C62.380665,113.115341 62.760689,112.982285 63.447639,112.877922 
	C67.627075,114.303780 68.025238,117.563004 67.897049,120.969902 
	C67.881798,121.375107 66.618752,121.733360 65.617630,122.088387 
z"/>
<path fill="#A1B1BF" opacity="1.000000" stroke="none" 
	d="
M53.350113,130.814682 
	C53.773151,131.021637 53.825527,131.236572 53.938377,131.777863 
	C49.476254,133.738617 45.990913,132.045959 42.943840,128.334106 
	C46.234142,128.930786 49.606800,129.876724 53.350113,130.814682 
z"/>
<path fill="#6B95BB" opacity="1.000000" stroke="none" 
	d="
M35.073036,105.661118 
	C34.135368,106.987244 33.070721,108.015114 31.673645,109.096848 
	C31.296541,107.312401 31.251865,105.474091 31.373493,103.201416 
	C32.675220,103.632324 33.810638,104.497597 35.073036,105.661118 
z"/>
<path fill="#426F9B" opacity="1.000000" stroke="none" 
	d="
M36.107803,61.535217 
	C35.143532,57.841133 34.237072,53.703869 33.573490,49.307240 
	C34.599449,53.062595 35.382526,57.077320 36.107803,61.535217 
z"/>
<path fill="#09427F" opacity="1.000000" stroke="none" 
	d="
M57.988106,156.982040 
	C58.276142,156.173874 58.564182,155.365692 59.254040,154.168640 
	C59.909454,153.510269 59.977768,153.199982 59.860798,152.848877 
	C59.860798,152.848877 59.992538,152.977646 60.405079,152.963684 
	C61.469547,152.998199 62.121475,153.046661 62.684864,153.446609 
	C61.878689,155.289444 61.161057,156.780792 60.089348,158.199768 
	C59.152885,157.745621 58.570496,157.363831 57.988106,156.982040 
z"/>
<path fill="#657F90" opacity="1.000000" stroke="none" 
	d="
M81.357025,187.842682 
	C86.064453,187.555435 91.232727,187.396805 96.744858,187.476349 
	C91.998428,187.800110 86.908157,187.885712 81.357025,187.842682 
z"/>
<path fill="#0D4E91" opacity="1.000000" stroke="none" 
	d="
M56.721054,168.027878 
	C56.485332,168.764679 56.249611,169.501495 56.004448,170.541397 
	C55.596485,170.973038 55.197956,171.101578 54.301659,170.965698 
	C53.208900,170.466751 52.613911,170.232208 52.018917,169.997681 
	C52.534637,168.816025 53.050362,167.634384 54.166649,166.224762 
	C55.480572,166.010895 56.193924,166.024979 56.927456,165.986450 
	C56.947632,165.933838 57.060112,165.942703 56.964371,166.282578 
	C56.819435,167.090927 56.770245,167.559402 56.721054,168.027878 
z"/>
<path fill="#1D528A" opacity="1.000000" stroke="none" 
	d="
M101.339279,145.397675 
	C101.023354,141.099380 100.702034,136.344101 100.669403,131.288910 
	C101.083351,135.639557 101.208626,140.290115 101.339279,145.397675 
z"/>
<path fill="#376693" opacity="1.000000" stroke="none" 
	d="
M57.704800,157.192841 
	C58.570496,157.363831 59.152885,157.745621 60.096767,158.459106 
	C60.180191,159.210693 59.902119,159.630600 59.379860,160.091766 
	C58.988186,160.196198 58.840702,160.259384 58.693218,160.322571 
	C58.849873,160.579865 59.006527,160.837143 59.196251,161.351990 
	C58.896210,162.178345 58.563099,162.747147 57.520630,163.148117 
	C56.334621,162.885544 55.857975,162.790817 55.381332,162.696106 
	C56.061390,160.931946 56.741444,159.167801 57.704800,157.192841 
z"/>
<path fill="#426F9B" opacity="1.000000" stroke="none" 
	d="
M36.543903,39.188301 
	C37.458244,35.782509 39.921478,37.206039 42.629318,38.306160 
	C43.209450,39.165775 43.371315,39.596302 43.533184,40.026833 
	C43.533184,40.026833 43.316280,40.148647 43.208908,40.086411 
	C41.053360,39.714870 39.005177,39.405567 36.543903,39.188301 
z"/>
<path fill="#98AFC3" opacity="1.000000" stroke="none" 
	d="
M130.233917,127.900375 
	C129.925735,127.425629 129.984497,126.954613 130.024170,126.127396 
	C131.442474,125.550858 132.879868,125.330505 134.317276,125.110161 
	C134.446579,125.579773 134.575882,126.049393 134.705185,126.519005 
	C133.337067,126.980705 131.968964,127.442406 130.233917,127.900375 
z"/>
<path fill="#1D528A" opacity="1.000000" stroke="none" 
	d="
M101.429932,128.930634 
	C100.779686,128.295135 100.387703,127.518288 99.994873,126.391434 
	C100.983299,125.908020 101.972580,125.774620 103.305283,125.893631 
	C103.785156,126.437691 103.910957,126.733849 104.026131,127.034531 
	C103.246819,127.619446 102.467506,128.204361 101.429932,128.930634 
z"/>
<path fill="#1A548F" opacity="1.000000" stroke="none" 
	d="
M42.759262,45.137291 
	C43.709396,44.938404 44.434616,44.942234 45.522804,44.946838 
	C45.099701,45.905380 44.313629,46.863140 42.933559,48.544636 
	C42.730286,46.912884 42.632317,46.126446 42.759262,45.137291 
z"/>
<path fill="#376693" opacity="1.000000" stroke="none" 
	d="
M72.913315,130.690125 
	C72.075638,131.003479 71.256325,130.962219 70.026138,130.894989 
	C70.165688,129.969131 70.716110,129.069244 71.266541,128.169357 
	C71.821587,128.891418 72.376640,129.613480 72.913315,130.690125 
z"/>
<path fill="#09427F" opacity="1.000000" stroke="none" 
	d="
M51.784332,170.303085 
	C52.613911,170.232208 53.208900,170.466751 53.981453,170.979065 
	C53.560825,172.299332 52.962631,173.341812 52.364433,174.384293 
	C51.973419,174.315262 51.582401,174.246231 51.191383,174.177185 
	C51.310841,172.987625 51.430294,171.798065 51.784332,170.303085 
z"/>
<path fill="#9CB0C0" opacity="1.000000" stroke="none" 
	d="
M86.767868,125.495682 
	C86.998688,125.925652 87.027710,126.117599 87.046509,126.600601 
	C86.122261,126.779053 85.208237,126.666466 84.294220,126.553879 
	C85.051498,126.121811 85.808777,125.689735 86.767868,125.495682 
z"/>
<path fill="#657F90" opacity="1.000000" stroke="none" 
	d="
M77.564346,185.822327 
	C78.022491,186.295105 78.076050,186.706223 78.166779,187.427032 
	C76.875786,187.736725 75.547630,187.736725 74.219467,187.736725 
	C74.158607,187.316208 74.097755,186.895676 74.036896,186.475159 
	C75.077850,186.236984 76.118805,185.998825 77.564346,185.822327 
z"/>
<path fill="#6B95BB" opacity="1.000000" stroke="none" 
	d="
M32.923569,74.702126 
	C32.514130,75.140457 32.174187,75.194008 31.578848,75.208618 
	C31.214558,73.996841 31.105667,72.824013 31.164993,71.235832 
	C31.747669,70.909767 32.162128,70.999054 32.890717,71.145149 
	C33.134254,72.240417 33.063663,73.278885 32.923569,74.702126 
z"/>
<path fill="#09427F" opacity="1.000000" stroke="none" 
	d="
M63.008995,148.117401 
	C63.286976,148.395859 63.564957,148.674332 64.092178,149.352417 
	C64.068138,150.281128 63.794857,150.810181 63.057953,151.257706 
	C61.971054,151.102295 61.347775,151.028412 60.724495,150.954514 
	C61.021862,150.144379 61.319225,149.334229 62.062172,148.292450 
	C62.674831,148.079666 62.841915,148.098526 63.008995,148.117401 
z"/>
<path fill="#09427F" opacity="1.000000" stroke="none" 
	d="
M55.196545,162.933868 
	C55.857975,162.790817 56.334621,162.885544 57.416664,163.516006 
	C57.650467,164.714188 57.278873,165.376617 56.907280,166.039062 
	C56.193924,166.024979 55.480572,166.010895 54.410347,166.003708 
	C54.372910,165.064285 54.692333,164.117981 55.196545,162.933868 
z"/>
<path fill="#9CB0C0" opacity="1.000000" stroke="none" 
	d="
M104.412849,127.114304 
	C103.910957,126.733849 103.785156,126.437691 103.605423,125.909897 
	C104.579636,125.691849 105.597122,125.709938 106.614616,125.728027 
	C106.009598,126.216713 105.404587,126.705399 104.412849,127.114304 
z"/>
<path fill="#6B95BB" opacity="1.000000" stroke="none" 
	d="
M31.508904,118.196228 
	C32.105484,118.171455 32.579948,118.562233 32.998306,119.612488 
	C32.896324,120.547989 32.850449,120.824013 32.804577,121.100044 
	C32.478767,121.170822 32.149521,121.217201 31.570076,121.201744 
	C31.344473,120.313469 31.365633,119.462631 31.508904,118.196228 
z"/>
<path fill="#98AFC3" opacity="1.000000" stroke="none" 
	d="
M113.795776,125.606949 
	C114.033592,126.029823 114.074562,126.194756 114.122566,126.614540 
	C113.219788,126.636948 112.309959,126.404503 111.400139,126.172058 
	C112.133072,125.897713 112.866005,125.623367 113.795776,125.606949 
z"/>
<path fill="#426F9B" opacity="1.000000" stroke="none" 
	d="
M57.182297,70.149033 
	C56.913025,69.514381 56.902569,69.022507 57.004051,68.178131 
	C57.778664,68.982536 58.441338,70.139450 59.059662,71.645111 
	C58.490578,71.426521 57.965847,70.859169 57.182297,70.149033 
z"/>
<path fill="#376693" opacity="1.000000" stroke="none" 
	d="
M80.373825,147.496552 
	C79.652214,146.636475 78.906342,145.413712 78.234390,143.801636 
	C78.988731,144.652847 79.669151,145.893341 80.373825,147.496552 
z"/>
<path fill="#376693" opacity="1.000000" stroke="none" 
	d="
M60.474777,151.097137 
	C61.347775,151.028412 61.971054,151.102295 63.067993,151.509735 
	C63.285568,152.260559 63.029484,152.677856 62.773403,153.095139 
	C62.121475,153.046661 61.469547,152.998199 60.328480,152.912598 
	C59.967915,152.330246 60.096489,151.785004 60.474777,151.097137 
z"/>
<path fill="#376693" opacity="1.000000" stroke="none" 
	d="
M76.351730,138.597748 
	C75.631660,137.695267 74.902519,136.422577 74.266815,134.761414 
	C75.021057,135.657806 75.681862,136.942673 76.351730,138.597748 
z"/>
<path fill="#164E85" opacity="1.000000" stroke="none" 
	d="
M117.348419,142.329956 
	C117.954964,142.457047 118.445114,142.937500 118.935265,143.417938 
	C118.590439,143.723282 118.245605,144.028625 117.678192,144.235428 
	C117.381088,143.652359 117.306557,143.167831 117.348419,142.329956 
z"/>
<path fill="#376693" opacity="1.000000" stroke="none" 
	d="
M67.426056,135.643188 
	C67.338173,136.521103 66.973640,137.602585 66.277168,138.835617 
	C66.346626,137.940369 66.748009,136.893570 67.426056,135.643188 
z"/>
<path fill="#4C7095" opacity="1.000000" stroke="none" 
	d="
M100.397041,154.669724 
	C100.024368,154.205154 99.923363,153.795151 99.816605,153.160278 
	C99.810844,152.935410 99.888290,152.880768 100.082298,152.886154 
	C100.276306,152.891541 100.580521,153.032654 100.580521,153.032654 
	C100.609917,153.596527 100.639313,154.160400 100.397041,154.669724 
z"/>
<path fill="#657F90" opacity="1.000000" stroke="none" 
	d="
M100.130753,187.866867 
	C99.849419,187.316757 99.921585,186.880707 100.014069,186.113281 
	C100.637337,186.171417 101.240280,186.560928 101.843216,186.950439 
	C101.390228,187.293930 100.937233,187.637421 100.130753,187.866867 
z"/>
<path fill="#426F9B" opacity="1.000000" stroke="none" 
	d="
M34.140678,43.800426 
	C33.946102,43.332592 33.968006,42.663303 34.241020,41.932198 
	C34.447144,42.446579 34.402149,43.022778 34.140678,43.800426 
z"/>
<path fill="#2A5C8F" opacity="1.000000" stroke="none" 
	d="
M128.190857,151.655731 
	C127.879349,151.128662 127.704300,150.232025 127.791878,149.154602 
	C128.145447,149.744598 128.236389,150.515381 128.190857,151.655731 
z"/>
<path fill="#265381" opacity="1.000000" stroke="none" 
	d="
M100.858841,152.725494 
	C100.580521,153.032654 100.276306,152.891541 100.113159,152.850189 
	C100.163460,151.972168 100.376907,151.135483 100.873154,150.120911 
	C101.149681,150.768127 101.143417,151.593216 100.858841,152.725494 
z"/>
<path fill="#1A548F" opacity="1.000000" stroke="none" 
	d="
M46.227589,44.807434 
	C46.398735,44.267517 46.847664,43.650524 47.606667,43.004074 
	C47.446281,43.559864 46.975826,44.145111 46.227589,44.807434 
z"/>
<path fill="#1A548F" opacity="1.000000" stroke="none" 
	d="
M48.255264,42.853558 
	C48.378105,42.298920 48.779598,41.677277 49.479805,41.009537 
	C49.363651,41.571144 48.948784,42.178848 48.255264,42.853558 
z"/>
<path fill="#2A5C8F" opacity="1.000000" stroke="none" 
	d="
M128.212219,162.646271 
	C127.901115,162.122971 127.717377,161.228455 127.797943,160.152023 
	C128.154709,160.738419 128.247162,161.506744 128.212219,162.646271 
z"/>
<path fill="#2A5C8F" opacity="1.000000" stroke="none" 
	d="
M128.191437,145.689377 
	C127.898567,145.434525 127.738319,144.847473 127.819016,144.118622 
	C128.147995,144.436935 128.236023,144.897049 128.191437,145.689377 
z"/>
<path fill="#225A93" opacity="1.000000" stroke="none" 
	d="
M40.023090,125.207130 
	C40.208778,125.143951 40.480427,125.319458 40.855164,125.742264 
	C40.675186,125.808304 40.392120,125.627060 40.023090,125.207130 
z"/>
<path fill="#426F9B" opacity="1.000000" stroke="none" 
	d="
M53.089680,70.223129 
	C53.128479,69.934250 53.554195,69.945808 53.764881,69.973679 
	C53.973217,70.205650 53.970867,70.409752 53.930008,70.918747 
	C53.611294,70.986435 53.331089,70.749229 53.089680,70.223129 
z"/>
<path fill="#376693" opacity="1.000000" stroke="none" 
	d="
M69.246674,131.490753 
	C69.444061,131.716125 69.401863,132.139648 69.060623,132.717819 
	C68.843407,132.477936 68.925247,132.083435 69.246674,131.490753 
z"/>
<path fill="#2A5C8F" opacity="1.000000" stroke="none" 
	d="
M128.233582,131.785583 
	C127.919281,131.833603 127.722893,131.664078 127.560722,131.466461 
	C127.542313,131.444016 127.716263,131.263733 128.002930,131.110687 
	C128.257095,131.229721 128.309372,131.394730 128.233582,131.785583 
z"/>
<path fill="#4C7095" opacity="1.000000" stroke="none" 
	d="
M117.233887,165.216888 
	C117.486305,165.129227 117.658409,165.305496 117.766441,165.514816 
	C117.805077,165.589661 117.688805,165.744492 117.479118,165.959656 
	C117.252769,165.868958 117.190529,165.681396 117.233887,165.216888 
z"/>
<path fill="#376693" opacity="1.000000" stroke="none" 
	d="
M62.959129,147.695770 
	C62.841915,148.098526 62.674831,148.079666 62.257256,148.031403 
	C62.071953,147.612457 62.137146,147.222885 62.444786,146.643921 
	C62.761242,146.727722 62.835255,147.000916 62.959129,147.695770 
z"/>
<path fill="#376693" opacity="1.000000" stroke="none" 
	d="
M68.568771,132.928375 
	C68.738747,133.118927 68.687592,133.434219 68.426605,133.886002 
	C68.260399,133.699371 68.304016,133.376221 68.568771,132.928375 
z"/>
<path fill="#376693" opacity="1.000000" stroke="none" 
	d="
M74.190720,133.666138 
	C73.900932,133.669662 73.603363,133.343201 73.345840,132.671661 
	C73.651581,132.663101 73.917267,132.999634 74.190720,133.666138 
z"/>
<path fill="#2A5C8F" opacity="1.000000" stroke="none" 
	d="
M128.172165,134.758728 
	C127.940300,134.726379 127.816032,134.439163 127.879028,134.072693 
	C128.137451,134.163589 128.208618,134.333725 128.172165,134.758728 
z"/>
<path fill="#376693" opacity="1.000000" stroke="none" 
	d="
M77.277176,140.650360 
	C76.974380,140.657822 76.661308,140.330048 76.394882,139.647614 
	C76.716652,139.633667 76.991776,139.974380 77.277176,140.650360 
z"/>
<path fill="#376693" opacity="1.000000" stroke="none" 
	d="
M78.207420,142.668365 
	C77.902557,142.674072 77.606400,142.346054 77.348083,141.673065 
	C77.662659,141.663605 77.939392,141.999115 78.207420,142.668365 
z"/>
<path fill="#376693" opacity="1.000000" stroke="none" 
	d="
M59.625572,152.953827 
	C59.977768,153.199982 59.909454,153.510269 59.438614,153.900452 
	C59.277691,153.700363 59.334015,153.379562 59.625572,152.953827 
z"/>
<path fill="#4C7095" opacity="1.000000" stroke="none" 
	d="
M117.227753,151.228149 
	C117.435608,151.251297 117.546425,151.550446 117.498810,151.950012 
	C117.270485,151.868332 117.200600,151.686234 117.227753,151.228149 
z"/>
<path fill="#376693" opacity="1.000000" stroke="none" 
	d="
M64.367416,142.558380 
	C64.538574,142.783020 64.458244,143.219803 64.080734,143.836945 
	C63.894348,143.601715 64.005127,143.186111 64.367416,142.558380 
z"/>
<path fill="#376693" opacity="1.000000" stroke="none" 
	d="
M63.374344,144.565308 
	C63.553772,144.784805 63.481510,145.212448 63.128273,145.828278 
	C62.939083,145.602127 63.030869,145.187790 63.374344,144.565308 
z"/>
<path fill="#1C588F" opacity="1.000000" stroke="none" 
	d="
M37.003086,21.978230 
	C37.002728,23.371248 37.002369,24.764267 36.995934,26.574863 
	C35.691956,27.946604 34.394054,28.900770 32.696281,30.148911 
	C32.696281,26.349283 32.696281,23.514715 32.856049,20.343723 
	C33.452766,20.009535 33.889721,20.011766 34.780041,20.277462 
	C35.823299,21.020025 36.413193,21.499126 37.003086,21.978230 
z"/>
<path fill="#1A548F" opacity="1.000000" stroke="none" 
	d="
M38.005867,30.340118 
	C38.646957,30.460947 39.284603,30.911165 39.966141,31.681377 
	C39.843334,32.003048 39.676640,32.004719 39.002388,32.002625 
	C38.323242,31.995005 38.151657,31.991152 37.980068,31.987301 
	C37.987522,31.548037 37.994972,31.108770 38.005867,30.340118 
z"/>
<path fill="#1C588F" opacity="1.000000" stroke="none" 
	d="
M37.799160,32.134644 
	C38.151657,31.991152 38.323242,31.995005 38.752342,32.003979 
	C38.728836,32.469807 38.447811,32.930511 38.166786,33.391220 
	C37.983940,33.021477 37.801094,32.651733 37.799160,32.134644 
z"/>
<path fill="#1A548F" opacity="1.000000" stroke="none" 
	d="
M43.670818,40.022747 
	C43.371315,39.596302 43.209450,39.165775 42.987518,38.396576 
	C43.104153,38.046940 43.280849,38.035973 43.722870,38.018082 
	C43.988194,38.011162 43.997906,38.001339 43.998066,38.335823 
	C44.026134,39.109047 44.054047,39.547791 44.081955,39.986534 
	C44.081955,39.986534 43.808453,40.018661 43.670818,40.022747 
z"/>
<path fill="#05488E" opacity="1.000000" stroke="none" 
	d="
M37.009056,21.595736 
	C36.413193,21.499126 35.823299,21.020025 35.107910,20.279032 
	C35.519352,18.525028 36.056293,17.032917 36.724594,15.175768 
	C38.186283,15.440016 39.697315,15.713184 41.592300,15.993084 
	C41.976322,16.444868 41.976387,16.889925 41.968201,17.668734 
	C39.608852,17.990356 37.123276,17.771120 37.009056,21.595736 
z"/>
<path fill="#C1D4DC" opacity="1.000000" stroke="none" 
	d="
M52.768105,26.030415 
	C52.522827,25.023781 52.536366,24.219736 52.760651,23.176680 
	C55.011589,22.490355 57.051773,22.043037 60.483410,21.290644 
	C59.757408,23.924301 59.788616,26.547785 58.492680,27.887442 
	C56.414642,30.035595 54.375324,28.455687 52.768105,26.030415 
z"/>
<path fill="#05488E" opacity="1.000000" stroke="none" 
	d="
M43.745655,19.988466 
	C43.459923,21.346891 42.922142,22.565542 42.384357,23.784191 
	C42.058723,23.665112 41.733086,23.546032 41.407448,23.426952 
	C41.601963,22.185659 41.796474,20.944368 41.995110,19.351498 
	C42.497360,19.282841 42.995480,19.565765 43.745655,19.988466 
z"/>
<path fill="#E8EEF2" opacity="1.000000" stroke="none" 
	d="
M62.684864,153.446609 
	C63.029484,152.677856 63.285568,152.260559 63.531609,151.591248 
	C63.794857,150.810181 64.068138,150.281128 64.373718,149.452850 
	C66.278931,151.995422 68.151840,154.837204 70.256035,158.311874 
	C71.178238,160.178040 71.869156,161.411316 72.560074,162.644592 
	C72.805122,163.480621 73.050163,164.316650 73.481377,165.831741 
	C73.694801,166.792480 73.722054,167.074158 73.522339,167.461761 
	C73.207085,167.709427 73.118813,167.851166 73.030533,167.992920 
	C68.352112,167.946228 63.673695,167.899551 58.431763,167.641373 
	C57.598866,166.934158 57.329487,166.438431 57.060112,165.942703 
	C57.060112,165.942703 56.947632,165.933838 56.927460,165.986450 
	C57.278873,165.376617 57.650467,164.714188 58.126022,163.683853 
	C58.563099,162.747147 58.896210,162.178345 59.374290,161.118729 
	C59.554184,160.435455 59.589115,160.242981 59.624050,160.050507 
	C59.902119,159.630600 60.180191,159.210693 60.450840,158.531464 
	C61.161057,156.780792 61.878689,155.289444 62.684864,153.446609 
z"/>
<path fill="#376693" opacity="1.000000" stroke="none" 
	d="
M72.667267,162.251358 
	C71.869156,161.411316 71.178238,160.178040 70.453949,158.587463 
	C71.205208,159.439484 71.989838,160.648804 72.667267,162.251358 
z"/>
<path fill="#376693" opacity="1.000000" stroke="none" 
	d="
M73.749306,167.355820 
	C73.722054,167.074158 73.694801,166.792480 73.687881,166.086639 
	C74.127350,166.257965 74.546486,166.853485 74.954865,167.704941 
	C74.735054,167.979691 74.525993,167.998505 74.052269,167.916306 
	C73.787598,167.815277 73.749306,167.355820 73.749306,167.355820 
z"/>
<path fill="#DCE7ED" opacity="1.000000" stroke="none" 
	d="
M50.007187,119.241119 
	C50.438148,120.552544 50.869110,121.863976 51.358059,123.351852 
	C48.757553,123.214867 46.106571,123.075218 42.994366,122.884155 
	C41.455925,119.868057 40.267658,116.936958 39.356064,113.922211 
	C38.990646,112.713745 39.233879,111.321236 39.588894,110.038773 
	C42.716930,112.310440 45.456142,114.555824 48.560143,117.262512 
	C49.285679,118.229584 49.646435,118.735352 50.007187,119.241119 
z"/>
<path fill="#FCFDFE" opacity="1.000000" stroke="none" 
	d="
M61.765182,113.193756 
	C62.568130,115.285751 66.488754,115.939804 64.100784,119.188438 
	C63.798546,119.305145 63.838135,119.285385 63.782970,118.966980 
	C62.818363,118.432533 61.908916,118.216484 60.999474,118.000435 
	C60.567444,117.946121 60.135418,117.891808 59.384228,117.433853 
	C59.054352,116.382774 59.043636,115.735359 59.195511,114.831436 
	C59.763538,114.130859 60.168968,113.686798 60.574402,113.242737 
	C60.900940,113.282883 61.219379,113.248344 61.765182,113.193756 
z"/>
<path fill="#D7E4EA" opacity="1.000000" stroke="none" 
	d="
M59.032921,115.087936 
	C59.043636,115.735359 59.054352,116.382774 59.067348,117.354019 
	C58.553356,117.774132 58.037086,117.870430 57.123558,118.005463 
	C57.059013,117.246681 57.391724,116.449158 58.126488,115.345879 
	C58.696674,115.056053 58.864799,115.071999 59.032921,115.087936 
z"/>
<path fill="#31618D" opacity="1.000000" stroke="none" 
	d="
M50.273933,119.133148 
	C49.646435,118.735352 49.285679,118.229584 48.860321,117.407333 
	C49.495960,117.432190 50.196198,117.773544 50.966095,118.423279 
	C50.870728,118.829498 50.705704,118.927338 50.273933,119.133148 
z"/>
<path fill="#31618D" opacity="1.000000" stroke="none" 
	d="
M59.195511,114.831436 
	C58.864799,115.071999 58.696674,115.056053 58.275383,115.049637 
	C58.623081,114.423340 59.223946,113.787529 60.199604,113.197227 
	C60.168968,113.686798 59.763538,114.130859 59.195511,114.831436 
z"/>
<path fill="#05488E" opacity="1.000000" stroke="none" 
	d="
M44.372036,39.947075 
	C44.054047,39.547791 44.026134,39.109047 43.993698,38.340614 
	C44.213486,38.643154 44.437801,39.275383 44.372036,39.947075 
z"/>
<path fill="#4F72B7" opacity="1.000000" stroke="none" 
	d="
M94.914780,157.365173 
	C95.236465,157.043243 95.586258,157.050507 95.936050,157.057770 
	C95.776009,157.622665 95.615974,158.187531 95.196442,158.884583 
	C94.938927,158.575943 94.940910,158.135147 94.914780,157.365173 
z"/>
<path fill="#E5ECEE" opacity="1.000000" stroke="none" 
	d="
M32.943325,121.326370 
	C32.850449,120.824013 32.896324,120.547989 32.972832,119.853363 
	C33.645512,119.711517 34.287556,119.988297 34.838287,120.716873 
	C34.462334,121.511002 34.177700,121.853325 33.893063,122.195648 
	C33.622734,121.981331 33.352402,121.767006 32.943325,121.326370 
z"/>
<path fill="#FCFDFE" opacity="1.000000" stroke="none" 
	d="
M33.964905,122.488098 
	C34.177700,121.853325 34.462334,121.511002 35.043072,121.004395 
	C35.513569,121.422417 35.687962,122.004723 35.418552,122.806152 
	C34.662083,122.943687 34.349415,122.862114 33.964905,122.488098 
z"/>
<path fill="#DCE7ED" opacity="1.000000" stroke="none" 
	d="
M42.234131,122.607590 
	C41.984558,122.889023 41.500469,122.942070 40.652786,123.005188 
	C40.859333,122.803246 41.429478,122.591232 42.234131,122.607590 
z"/>
<path fill="#376693" opacity="1.000000" stroke="none" 
	d="
M56.964371,166.282578 
	C57.329487,166.438431 57.598866,166.934158 57.972557,167.692108 
	C57.853619,167.999664 57.630363,168.045013 57.064079,168.059113 
	C56.770245,167.559402 56.819435,167.090927 56.964371,166.282578 
z"/>
<path fill="#0D4E91" opacity="1.000000" stroke="none" 
	d="
M73.522339,167.461761 
	C73.749306,167.355820 73.787598,167.815277 73.737473,167.921844 
	C73.687340,168.028412 73.357193,168.036285 73.193863,168.014603 
	C73.118813,167.851166 73.207085,167.709427 73.522339,167.461761 
z"/>
<path fill="#D7E4EA" opacity="1.000000" stroke="none" 
	d="
M61.119873,118.312302 
	C61.908916,118.216484 62.818363,118.432533 63.763474,118.965172 
	C62.946182,119.062569 62.093227,118.843369 61.119873,118.312302 
z"/>
<path fill="#09427F" opacity="1.000000" stroke="none" 
	d="
M59.379860,160.091766 
	C59.589115,160.242981 59.554184,160.435455 59.341217,160.861176 
	C59.006527,160.837143 58.849873,160.579865 58.693218,160.322571 
	C58.840702,160.259384 58.988186,160.196198 59.379860,160.091766 
z"/>
</svg>